<?xml version="1.0" encoding="UTF-8"?>
<!DOCTYPE svg PUBLIC "-//W3C//DTD SVG 1.1//EN" "http://www.w3.org/Graphics/SVG/1.1/DTD/svg11.dtd">
<!-- Creator: CorelDRAW X7 -->
<svg xmlns="http://www.w3.org/2000/svg" xml:space="preserve" width="1920px" height="1080px" version="1.1" style="shape-rendering:geometricPrecision; text-rendering:geometricPrecision; image-rendering:optimizeQuality; fill-rule:evenodd; clip-rule:evenodd"
viewBox="0 0 192000000 108000000"
 xmlns:xlink="http://www.w3.org/1999/xlink">
 <defs>
  <style type="text/css">
   <![CDATA[
    .fil4 {fill:#CB8A0D}
    .fil0 {fill:#4D4D4D;fill-rule:nonzero}
    .fil1 {fill:gray;fill-rule:nonzero}
    .fil2 {fill:#FAAA0F;fill-rule:nonzero}
    .fil3 {fill:black;fill-opacity:0.101961}
   ]]>
  </style>
 </defs>
 <g id="Layer_x0020_1">
  <metadata id="CorelCorpID_0Corel-Layer"/>
  <g id="_884444832">
   <path class="fil0" d="M145943031 68520591l-6968149 0 -4510394 -8978268 -980669 602598 0 8375670 -847913 0 -6200434 0 0 -23481497 6200434 0 847913 0 0 8752914c288779,-450945 634961,-969213 1039252,-1555984l4798346 -7196930 6744213 0 -7197284 10518308 7074685 12963189z"/>
   <path class="fil0" d="M117653740 49906299c-1465984,0 -2612244,619607 -3433464,1852795 -826300,1238623 -1236851,2943544 -1236851,5119489 0,4516535 1673977,6774803 5016851,6774803 1007716,0 1988504,-142677 2937637,-433229 943701,-290314 1897914,-635669 2857678,-1046692l0 5371417c-1908544,871417 -4062638,1304646 -6467008,1304646 -3449410,0 -6088465,-1030512 -7928032,-3086103 -1839212,-2055236 -2756102,-5026181 -2756102,-8912362 0,-2428228 442441,-4565787 1332874,-6407480 890197,-1841811 2169803,-3255827 3843779,-4247953 1673977,-992244 3636142,-1485473 5896772,-1485473 2468386,0 4824803,548268 7074685,1649764l-1887402 4993465c-842362,-411024 -1690039,-750827 -2532283,-1030512 -842480,-279449 -1748858,-416575 -2719134,-416575z"/>
   <polygon class="fil0" points="65714646,68520591 65714646,45039094 72056575,45039094 72056575,63390354 81094961,63390354 81094961,68520591 "/>
   <path class="fil0" d="M45938268 45039094l8194370 0c3190157,0 5558031,471378 7103858,1419567 1551142,948308 2323937,2422678 2323937,4423465 0,1320827 -339803,2444528 -1013976,3376417 -674292,931772 -1562244,1529174 -2663977,1797756l0 159095c1452520,383740 2510551,1030275 3162638,1929212 652323,899055 981024,2066457 981024,3502441 0,2132362 -799961,3809646 -2400591,5031851 -1600630,1227756 -3787441,1841693 -6550157,1841693l-9137126 0 0 -23481497zm6341811 13648111l0 4933110 2236299 0c1978819,0 2970827,-833150 2970827,-2504882 0,-783661 -263150,-1381299 -794764,-1803071 -531732,-416929 -1298976,-625157 -2307520,-625157l-2104842 0zm0 -4637008l1912913 0c909921,0 1617047,-186260 2115709,-564449 498779,-372874 745512,-931890 745512,-1666299 0,-1321063 -997559,-1978819 -2987126,-1978819l-1787008 0 0 4209567z"/>
   <polygon class="fil1" points="51171142,42583346 48424016,42583346 48424016,34662520 45938031,34662520 45938031,32411575 53649921,32411575 53649921,34662520 51171142,34662520 "/>
   <polygon id="1" class="fil1" points="63814606,42583346 61053189,42583346 61053189,38437677 57862087,38437677 57862087,42583346 55100787,42583346 55100787,32411575 57862087,32411575 57862087,36186850 61053189,36186850 61053189,32411575 63814606,32411575 "/>
   <polygon id="2" class="fil1" points="72055984,42583346 66015709,42583346 66015709,32411575 72055984,32411575 72055984,34619764 68762835,34619764 68762835,36215315 71811496,36215315 71811496,38423504 68762835,38423504 68762835,40346693 72055984,40346693 "/>
   <path class="fil2" d="M88384488 45764646c2643307,216141 5190000,424488 7644921,625039 2367166,193228 4650473,379724 6859252,560315 614292,50197 1224685,100157 1829410,149291 0,694725 0,1387323 0,2079922 0,2712992 0,5428228 0,8139330 0,2710985 0,5426221 0,8137323 0,692599 0,1384961 0,2073425 -5444291,447402 -10889173,889843 -16333583,1334882 -772913,63189 -1549724,126851 -2335630,190984 0,-791338 0,-1587401 0,-2383110 0,-3116220 0,-6236929 0,-9352913 0,-3116103 0,-6236693 0,-9355276 0,-795708 0,-1591771 0,-2390433 785906,64606 1562717,128032 2335630,191221zm10824567 7499763l-6309921 0 -97205 8059016 6407126 -238582 0 -7820434z"/>
   <polygon class="fil3" points="104718071,67529409 86048740,69055039 106753701,68875866 "/>
   <polygon class="fil4" points="86048740,45573543 83630669,46325079 83630669,68503937 86048740,69055039 "/>
   <polygon class="fil4" points="99209055,53264173 97833307,53264173 97833307,61136102 99209055,61084843 "/>
  </g>
 </g>
</svg>
